# Blender v2.79 (sub 0) OBJ File: 'base.blend'
# www.blender.org
mtllib base.mtl
o Cylinder_Cylinder.001
v -0.000000 -0.200001 0.000000
v -0.000000 0.200001 0.000001
v -0.000000 -0.200000 -2.000004
v -0.000000 0.200000 -2.000004
v 0.618035 -0.200000 -1.902117
v 0.618035 0.200000 -1.902117
v 1.175573 -0.200000 -1.618037
v 1.175573 0.200000 -1.618037
v 1.618037 -0.200000 -1.175573
v 1.618037 0.200000 -1.175573
v 1.902117 -0.200000 -0.618035
v 1.902117 0.200000 -0.618035
v 2.000004 -0.200000 0.000000
v 2.000004 0.200000 0.000001
v 1.902117 -0.200000 0.618035
v 1.902117 0.200000 0.618036
v 1.618037 -0.200000 1.175573
v 1.618037 0.200000 1.175574
v 1.175573 -0.200000 1.618038
v 1.175573 0.200000 1.618038
v 0.618035 -0.200000 1.902117
v 0.618035 0.200000 1.902118
v -0.000001 -0.200000 2.000004
v -0.000001 0.200000 2.000005
v -0.618036 -0.200000 1.902117
v -0.618036 0.200000 1.902117
v -1.175574 -0.200000 1.618037
v -1.175574 0.200000 1.618037
v -1.618039 -0.200000 1.175572
v -1.618039 0.200000 1.175573
v -1.902118 -0.200000 0.618034
v -1.902118 0.200000 0.618034
v -2.000005 -0.200000 -0.000002
v -2.000005 0.200000 -0.000001
v -1.902117 -0.200000 -0.618037
v -1.902117 0.200000 -0.618037
v -1.618036 -0.200000 -1.175575
v -1.618036 0.200000 -1.175575
v -1.175571 -0.200000 -1.618039
v -1.175571 0.200000 -1.618039
v -0.618033 -0.200000 -1.902118
v -0.618033 0.200000 -1.902117
vn 0.0000 -1.0000 -0.0000
vn 0.0000 1.0000 -0.0000
vn 0.1564 0.0000 -0.9877
vn 0.4540 0.0000 -0.8910
vn 0.7071 0.0000 -0.7071
vn 0.8910 0.0000 -0.4540
vn 0.9877 0.0000 -0.1564
vn 0.9877 -0.0000 0.1564
vn 0.8910 -0.0000 0.4540
vn 0.7071 -0.0000 0.7071
vn 0.4540 -0.0000 0.8910
vn 0.1564 -0.0000 0.9877
vn -0.1564 -0.0000 0.9877
vn -0.4540 -0.0000 0.8910
vn -0.7071 -0.0000 0.7071
vn -0.8910 -0.0000 0.4540
vn -0.9877 -0.0000 0.1564
vn -0.9877 0.0000 -0.1564
vn -0.8910 0.0000 -0.4540
vn -0.7071 0.0000 -0.7071
vn -0.4540 0.0000 -0.8910
vn -0.1564 0.0000 -0.9877
usemtl None
s off
f 1//1 3//1 5//1
f 2//2 6//2 4//2
f 3//3 4//3 6//3 5//3
f 1//1 5//1 7//1
f 2//2 8//2 6//2
f 5//4 6//4 8//4 7//4
f 1//1 7//1 9//1
f 2//2 10//2 8//2
f 7//5 8//5 10//5 9//5
f 1//1 9//1 11//1
f 2//2 12//2 10//2
f 9//6 10//6 12//6 11//6
f 1//1 11//1 13//1
f 2//2 14//2 12//2
f 11//7 12//7 14//7 13//7
f 1//1 13//1 15//1
f 2//2 16//2 14//2
f 13//8 14//8 16//8 15//8
f 1//1 15//1 17//1
f 2//2 18//2 16//2
f 15//9 16//9 18//9 17//9
f 1//1 17//1 19//1
f 2//2 20//2 18//2
f 17//10 18//10 20//10 19//10
f 1//1 19//1 21//1
f 2//2 22//2 20//2
f 19//11 20//11 22//11 21//11
f 1//1 21//1 23//1
f 2//2 24//2 22//2
f 21//12 22//12 24//12 23//12
f 1//1 23//1 25//1
f 2//2 26//2 24//2
f 23//13 24//13 26//13 25//13
f 1//1 25//1 27//1
f 2//2 28//2 26//2
f 25//14 26//14 28//14 27//14
f 1//1 27//1 29//1
f 2//2 30//2 28//2
f 27//15 28//15 30//15 29//15
f 1//1 29//1 31//1
f 2//2 32//2 30//2
f 29//16 30//16 32//16 31//16
f 1//1 31//1 33//1
f 2//2 34//2 32//2
f 31//17 32//17 34//17 33//17
f 1//1 33//1 35//1
f 2//2 36//2 34//2
f 33//18 34//18 36//18 35//18
f 1//1 35//1 37//1
f 2//2 38//2 36//2
f 35//19 36//19 38//19 37//19
f 1//1 37//1 39//1
f 2//2 40//2 38//2
f 37//20 38//20 40//20 39//20
f 1//1 39//1 41//1
f 2//2 42//2 40//2
f 39//21 40//21 42//21 41//21
f 1//1 41//1 3//1
f 2//2 4//2 42//2
f 41//22 42//22 4//22 3//22
